HIERARCHY
ROOT hip
{
	OFFSET 0.000000 0.000000 0.000000 
	CHANNELS 6 Xposition Yposition Zposition Xrotation Zrotation Yrotation
	JOINT abdomen
	{
		OFFSET 0.000000 3.402643 0.000000 
		CHANNELS 3 Xrotation Zrotation Yrotation
		JOINT chest
		{
			OFFSET 0.000000 8.438565 -0.680529 
			CHANNELS 3 Xrotation Zrotation Yrotation
			JOINT neck
			{
				OFFSET 0.000000 10.207942 -0.272212 
				CHANNELS 3 Xrotation Zrotation Yrotation
				JOINT head
				{
					OFFSET 0.000000 3.130431 0.000000 
					CHANNELS 3 Xrotation Zrotation Yrotation
					End Site
					{
						OFFSET 0.000000 3.130435 0.000000 
					}
				}
			}
			JOINT lCollar
			{
				OFFSET 3.470700 6.669187 -0.816635 
				CHANNELS 3 Yrotation Zrotation Xrotation
				JOINT lShldr
				{
					OFFSET 3.198488 0.000000 0.000000 
					CHANNELS 3 Zrotation Yrotation Xrotation
					JOINT lForeArm
					{
						OFFSET 10.139888 0.000000 0.000000 
						CHANNELS 3 Yrotation Zrotation Xrotation
						JOINT lHand
						{
							OFFSET 8.370511 0.000000 0.000000 
							CHANNELS 3 Zrotation Yrotation Xrotation
							End Site
							{
								OFFSET 4.083176 0.000000 0.000000 
							}
						}
					}
				}
			}
			JOINT rCollar
			{
				OFFSET -3.470700 6.669187 -0.816635 
				CHANNELS 3 Yrotation Zrotation Xrotation
				JOINT rShldr
				{
					OFFSET -3.198488 0.000000 0.000000 
					CHANNELS 3 Zrotation Yrotation Xrotation
					JOINT rForeArm
					{
						OFFSET -10.139888 0.000000 0.000000 
						CHANNELS 3 Yrotation Zrotation Xrotation
						JOINT rHand
						{
							OFFSET -8.370511 0.000000 0.000000 
							CHANNELS 3 Zrotation Yrotation Xrotation
							End Site
							{
								OFFSET -4.083176 0.000000 0.000000 
							}
						}
					}
				}
			}
		}
	}
	JOINT lThigh
	{
		OFFSET 5.308129 -1.633274 1.361059 
		CHANNELS 3 Xrotation Zrotation Yrotation
		JOINT lShin
		{
			OFFSET -2.041588 -20.007561 0.000000 
			CHANNELS 3 Xrotation Zrotation Yrotation
			JOINT lFoot
			{
				OFFSET 0.000000 -19.190928 -1.224953 
				CHANNELS 3 Xrotation Yrotation Zrotation
				End Site
				{
					OFFSET 0.000000 -2.449906 4.627600 
				}
			}
		}
	}
	JOINT rThigh
	{
		OFFSET -5.308129 -1.633274 1.361059 
		CHANNELS 3 Xrotation Zrotation Yrotation
		JOINT rShin
		{
			OFFSET 2.041588 -20.007561 0.000000 
			CHANNELS 3 Xrotation Zrotation Yrotation
			JOINT rFoot
			{
				OFFSET 0.000000 -19.190928 -1.224953 
				CHANNELS 3 Xrotation Yrotation Zrotation
				End Site
				{
					OFFSET 0.000000 -2.449906 4.627600 
				}
			}
		}
	}
}
MOTION
Frames: 18
Frame Time: 0.016667
11.329871 42.232891 1.431828 0.537757 2.812380 -28.771999 -18.442200 2.928980 -0.471981 16.944300 3.995980 -0.017074 12.758050 -15.765629 -0.779283 14.708000 6.302940 1.503360 2.000000 -2.000000 0.000000 94.649002 -159.042007 -4.667900 123.964996 -0.133009 0.131289 0.046715 -0.025758 -146.160004 -2.000000 2.000000 0.000000 59.777500 42.637100 163.289993 -136.044998 0.123455 0.078362 -0.058901 0.037737 -150.524994 -30.085266 4.997665 -7.878200 45.226341 2.388020 3.093098 -10.735192 1.240097 2.167991 -9.576266 -3.739521 1.495091 44.443722 -2.507144 -3.019522 -32.911591 -1.220170 -0.468379 
11.298641 42.045784 1.622499 0.576699 2.451050 -27.621401 -18.331800 2.758000 -0.399381 17.101700 3.811440 0.004947 12.764041 -15.387742 -1.000024 14.670000 6.361420 1.509840 2.000000 -2.000000 0.000000 94.689003 -159.781998 -5.548460 124.454002 -0.131976 0.130587 0.046746 -0.025947 -146.227997 -2.000000 2.000000 0.000000 59.909801 40.986500 163.367004 -137.061005 0.121908 0.076728 -0.058045 0.034006 -149.158005 -30.311632 5.636761 -8.520390 43.610210 2.512723 2.979041 -11.047765 2.062114 2.352341 -9.170255 -3.435827 0.635324 44.935612 -2.479381 -3.047536 -33.583134 -2.104288 -1.134640 
11.203514 41.862133 1.929914 0.791388 1.757640 -25.590700 -18.490999 2.910030 -0.550578 17.061701 4.015980 -0.049154 13.054736 -15.074101 -1.131024 14.627000 6.621700 1.591690 2.000000 -2.000000 0.000000 94.367996 -160.921997 -6.420170 125.010002 -0.130807 0.129776 0.046354 -0.023434 -145.320007 -2.000000 2.000000 0.000000 59.806301 38.446301 163.858994 -138.858002 0.119241 0.073772 -0.057472 0.031248 -148.151993 -30.854717 6.150333 -9.977593 41.781731 2.705225 2.830991 -11.274526 1.132962 2.190017 -8.204156 -2.695637 -0.857117 44.848392 -2.470811 -3.055560 -34.363056 -3.037484 -1.919497 
11.108419 41.678619 2.237338 0.986495 1.054530 -23.565701 -18.660299 3.070770 -0.706393 17.011801 4.230200 -0.095084 13.355419 -14.762345 -1.271625 14.574300 6.882290 1.673070 2.000000 -2.000000 0.000000 94.027397 -162.063004 -7.291890 125.567001 -0.129645 0.128954 0.046003 -0.020916 -144.412003 -2.000000 2.000000 0.000000 59.683899 35.906101 164.345001 -140.664001 0.116656 0.070716 -0.056948 0.028481 -147.145996 -31.399817 6.651509 -11.457674 39.896408 2.858457 2.711395 -11.471360 0.152744 2.008876 -7.273569 -1.924453 -2.358710 44.749622 -2.476807 -3.040340 -35.150028 -3.951248 -2.722579 
10.984656 41.534332 2.657415 1.250020 0.322189 -20.852301 -18.927999 3.276990 -0.658581 16.902700 4.512330 -0.053356 13.514784 -14.817393 -1.720226 14.685300 6.994810 1.541440 2.000000 -2.000000 0.000000 94.360001 -162.490997 -7.888570 125.917999 -0.128916 0.128428 0.045978 -0.020726 -144.343994 -2.000000 2.000000 0.000000 58.975498 33.554699 163.451004 -142.764008 0.113773 0.067065 -0.056476 0.025731 -146.149994 -32.166031 6.619828 -13.331348 37.732986 3.014220 2.550959 -11.693278 -1.989659 1.556696 -5.966766 -0.949853 -4.291914 43.992645 -2.521189 -3.013827 -35.756218 -5.136319 -3.763407 
10.860893 41.390045 3.077493 1.474650 -0.429545 -18.136101 -19.195900 3.482620 -0.611737 16.793400 4.804120 -0.002829 13.680441 -14.892604 -2.180432 14.806600 7.116580 1.414460 2.000000 -2.000000 0.000000 -85.317200 -17.070999 171.524002 126.269997 -0.128189 0.127899 0.045957 -0.020563 -144.285004 -2.000000 2.000000 0.000000 58.326302 31.203100 162.610001 -144.854004 0.111039 0.063328 -0.056053 0.022974 -145.154007 -32.938599 6.547680 -15.196005 35.683418 3.179635 2.385287 -12.045775 -4.115622 1.109234 -4.695956 0.075534 -6.204610 43.244045 -2.566640 -2.958090 -36.396935 -6.309863 -4.819976 
10.765450 41.318417 3.599765 1.748290 -0.956586 -15.537200 -19.453400 3.304460 0.024246 16.727100 4.384760 0.302594 14.326122 -14.392680 -3.867091 14.906200 7.526670 1.104790 2.000000 -2.000000 0.000000 -84.341003 -17.490700 171.613007 126.690002 -0.127326 0.127260 0.045888 -0.020021 -144.089996 -2.000000 2.000000 0.000000 57.631802 31.107901 161.516006 -144.873001 0.111014 0.063293 -0.055619 0.019749 -143.992004 -33.617504 5.827531 -17.446081 33.994987 3.260259 2.292470 -11.077971 -5.260382 0.878797 -3.397694 1.081790 -7.624275 41.975525 -2.617636 -2.883350 -36.857342 -7.255467 -5.752906 
10.670008 41.246777 4.122037 2.002640 -1.502990 -12.943400 -19.718901 3.133030 0.651303 16.660601 3.965450 0.609706 14.966746 -13.876324 -5.554039 14.996700 7.936770 0.804859 2.000000 -2.000000 0.000000 -83.355003 -17.900600 171.701996 127.110001 -0.126468 0.126616 0.045820 -0.019478 -143.893997 -2.000000 2.000000 0.000000 56.937302 31.012699 160.421997 -144.893005 0.110989 0.063257 -0.055254 0.016543 -142.839996 -34.268127 5.093835 -19.682779 32.345890 3.316129 2.179299 -10.177849 -6.435890 0.683216 -2.225363 2.102590 -9.031845 40.880756 -2.703639 -2.816635 -37.408043 -8.190121 -6.700770 
10.687915 41.191227 4.651936 2.461800 -1.512280 -11.217600 -20.231800 2.853650 1.519520 16.379101 3.447870 1.008540 15.646341 -13.546309 -7.150840 15.128000 8.364600 0.497365 2.000000 -2.000000 0.000000 97.162300 -161.934006 -8.043560 127.753998 -0.125159 0.125614 0.045685 -0.018337 -143.483994 -2.000000 2.000000 0.000000 53.648899 33.800598 158.328995 -140.126999 0.117414 0.071633 -0.055362 0.017549 -143.201004 -34.973198 4.088449 -21.026901 32.433731 3.238353 2.215580 -8.652761 -8.227783 0.549875 -1.572260 2.549558 -9.608057 39.993221 -2.761243 -2.754164 -37.968605 -8.781509 -7.356070 
10.705832 41.135662 5.181835 2.911200 -1.531230 -9.482390 -20.751200 2.586590 2.393650 16.097601 2.940310 1.411740 16.343727 -13.194659 -8.745777 15.250600 8.801910 0.180927 2.000000 -2.000000 0.000000 97.679703 -161.759003 -7.779490 128.389008 -0.123881 0.124613 0.045558 -0.017196 -143.074005 -2.000000 2.000000 0.000000 50.125900 36.481499 155.972000 -135.371002 0.124498 0.079431 -0.055476 0.018555 -143.561996 -35.657726 3.063553 -22.360340 32.405384 3.140422 2.247569 -7.007152 -10.046901 0.464742 -1.032590 2.983585 -10.190737 39.193672 -2.820583 -2.699465 -38.539894 -9.384640 -8.034931 
10.871576 41.053486 5.677628 3.076760 -1.121430 -9.201080 -20.906200 2.020690 3.974790 15.965200 1.508820 2.134750 16.467802 -12.734686 -10.178811 15.326800 9.010350 -0.195221 2.000000 -2.000000 0.000000 98.665298 -161.065994 -7.367760 129.014008 -0.122634 0.123614 0.045629 -0.017848 -143.307999 -2.000000 2.000000 0.000000 44.231300 40.885300 151.681000 -124.024002 0.143813 0.095464 -0.055036 0.014284 -142.029007 -35.851189 2.169474 -22.590925 33.460934 3.014075 2.345310 -6.478998 -11.504449 0.305563 -0.810603 2.472805 -10.113859 39.346367 -2.872305 -2.695363 -38.929691 -9.760627 -8.456597 
11.037310 40.971313 6.173422 3.242440 -0.721500 -8.917940 -21.081900 1.443840 5.556750 15.830100 0.097324 2.863050 16.576353 -12.287614 -11.598432 15.403200 9.218680 -0.570830 2.000000 -2.000000 0.000000 99.641098 -160.363998 -6.965790 129.639008 -0.121398 0.122601 0.045701 -0.018473 -143.533005 -2.000000 2.000000 0.000000 37.475101 44.890099 146.475006 -112.685997 0.165885 0.107374 -0.054711 0.010003 -140.496002 -36.031761 1.289051 -22.812855 34.428467 2.870405 2.446471 -5.888667 -12.949868 0.205096 -0.554321 1.967587 -10.025264 39.382587 -2.907585 -2.687092 -39.278561 -10.124793 -8.879145 
11.205288 40.905987 6.634122 3.115760 -1.053130 -9.950070 -20.854500 1.158410 7.169000 16.052799 -1.655030 3.655680 16.218931 -12.208412 -12.142156 15.479300 9.129850 -0.819688 2.000000 -2.000000 0.000000 100.255997 -160.393997 -6.975620 130.761993 -0.119205 0.120748 0.045472 -0.016380 -142.781006 -2.000000 2.000000 0.000000 28.141800 50.528301 139.513000 -94.297302 0.205336 0.116837 -0.054405 0.001423 -137.429993 -36.193047 1.916718 -21.272087 36.321014 2.785906 2.558040 -6.563002 -12.739705 0.080973 0.000110 2.007627 -9.153380 39.386547 -2.970292 -2.659919 -39.290764 -10.293804 -8.952579 
11.373234 40.840652 7.094855 2.979390 -1.384850 -10.980500 -20.644100 0.860473 8.780430 16.252100 -3.408350 4.445390 15.871459 -12.127598 -12.697976 15.555700 9.050630 -1.068390 2.000000 -2.000000 0.000000 100.872002 -160.412994 -6.985430 131.895004 -0.117030 0.118835 0.045270 -0.014284 -142.029007 -2.000000 2.000000 0.000000 16.521400 55.221699 130.177002 -75.889198 0.248181 0.132598 -0.054558 0.002604 -134.363007 -36.331936 2.539165 -19.703621 38.113152 2.712242 2.661219 -7.129853 -12.546948 -0.024203 0.588999 2.044923 -8.268198 39.273823 -3.019085 -2.629152 -39.225857 -10.470523 -9.044376 
11.532530 40.817635 7.641380 3.047960 -1.531040 -10.999700 -20.683901 0.860561 9.315160 16.386000 -4.051780 4.718990 15.645765 -12.420919 -12.544648 15.551400 8.926240 -1.161800 2.000000 -2.000000 0.000000 99.720596 -162.328995 -6.022970 133.272003 -0.114438 0.116452 0.045166 -0.013058 -141.589996 -2.000000 2.000000 0.000000 7.685200 57.357700 125.328003 -61.465401 0.280158 0.120115 -0.054474 0.004844 -135.164001 -36.550587 2.810759 -18.201025 39.711403 2.599787 2.771538 -8.104077 -13.360475 -0.384984 1.427524 1.774885 -8.532458 38.872128 -3.124567 -2.591982 -38.707371 -9.725549 -8.297959 
11.691712 40.794750 8.187894 3.106790 -1.667470 -11.018500 -20.721500 0.863887 9.859650 16.509800 -4.695350 4.989700 15.424558 -12.708239 -12.396029 15.547200 8.801850 -1.255220 2.000000 -2.000000 0.000000 98.598801 -164.264999 -5.109420 134.649002 -0.111904 0.114008 0.045070 -0.011831 -141.149994 -2.000000 2.000000 0.000000 -1.958860 59.034901 119.648003 -47.051201 0.308000 0.100075 -0.054421 -0.002679 -135.964996 -36.757397 3.079520 -16.679777 41.220394 2.487682 2.879401 -9.016448 -14.189954 -0.744394 2.323175 1.510392 -8.776569 38.382095 -3.220039 -2.542117 -38.198414 -8.995325 -7.553504 
11.850448 40.756557 8.743047 3.215290 -2.213310 -10.222200 -20.567499 0.991743 9.783040 16.735201 -4.686870 4.970660 15.405587 -12.290030 -13.309061 15.571900 8.944710 -1.486940 2.000000 -2.000000 0.000000 97.212402 -165.483002 -2.329010 135.488998 -0.110388 0.112488 0.044825 -0.007846 -139.725006 -2.000000 2.000000 0.000000 0.256235 57.868801 122.867996 -48.457500 0.305516 0.102331 -0.054478 0.004708 -135.115005 -37.049389 3.349905 -16.020477 42.451752 2.405409 2.961867 -9.468077 -14.552253 -1.000478 2.978862 1.659694 -9.210732 38.299156 -3.267612 -2.529260 -36.519913 -8.477482 -6.852376 
12.009294 40.718483 9.298166 3.314390 -2.759060 -9.427580 -20.403900 1.128910 9.703540 16.950899 -4.678260 4.942730 15.374727 -11.876068 -14.218562 15.596600 9.087560 -1.717040 2.000000 -2.000000 0.000000 95.894699 -166.768005 0.392627 136.319000 -0.108911 0.110964 0.044679 -0.003829 -138.289001 -2.000000 2.000000 0.000000 2.284030 56.644001 125.893997 -49.863701 0.302978 0.104526 -0.054572 0.002303 -134.255997 -37.370052 3.616371 -15.370639 43.712914 2.306830 3.044480 -9.914055 -14.912904 -1.238510 3.609874 1.822044 -9.644581 38.311867 -3.335621 -2.503332 -34.926800 -7.956357 -6.153812 
